<?xml version="1.0" standalone="no"?>
 <!DOCTYPE svg PUBLIC "-//W3C//DTD SVG 1.1//EN" 
 "http://www.w3.org/Graphics/SVG/1.1/DTD/svg11.dtd"> 
<svg xmlns="http://www.w3.org/2000/svg" version="1.1" 
    width="29.7002cm" height="21.0007cm" viewBox="0 0 116930 82680 ">
<title>SVG Picture created as shema_3.svg date 2015/10/27 16:55:46 </title>
  <desc>Picture generated by Eeschema-SVG </desc>
<g style="fill:#000000; fill-opacity:1;stroke:#000000; stroke-opacity:1;
stroke-linecap:round; stroke-linejoin:round; "
 transform="translate(0 0) scale(1 1)">
</g>
<g style="fill:#000000; fill-opacity:0.0; 
stroke:#000000; stroke-width:0; stroke-opacity:1; 
stroke-linecap:round; stroke-linejoin:round;">
</g>
<g style="fill:#000000; fill-opacity:1.0; 
stroke:#000000; stroke-width:100; stroke-opacity:1; 
stroke-linecap:round; stroke-linejoin:round;">
<circle cx="59500" cy="32500" r="160" /> 
</g>
<g style="fill:#000000; fill-opacity:1.0; 
stroke:#000000; stroke-width:60; stroke-opacity:1; 
stroke-linecap:round; stroke-linejoin:round;">
<path d="M62000 32500
L59500 32500
" />
</g>
<g style="fill:#000000; fill-opacity:1.0; 
stroke:#000000; stroke-width:0; stroke-opacity:1; 
stroke-linecap:round; stroke-linejoin:round;">
</g>
<g style="fill:#000000; fill-opacity:1.0; 
stroke:#000000; stroke-width:100; stroke-opacity:1; 
stroke-linecap:round; stroke-linejoin:round;">
<circle cx="59500" cy="38500" r="160" /> 
</g>
<g style="fill:#000000; fill-opacity:1.0; 
stroke:#000000; stroke-width:60; stroke-opacity:1; 
stroke-linecap:round; stroke-linejoin:round;">
<path d="M59500 43000
L59500 38500
" />
<path d="M59500 38500
L59500 36500
" />
<path d="M59500 43000
L48500 43000
" />
<path d="M48500 46500
L48500 47500
" />
<path d="M48500 33500
L54000 33500
" />
<path d="M54000 33500
L54000 40500
" />
<path d="M54000 40500
L62000 40500
" />
<path d="M59500 36500
L62000 36500
" />
<path d="M48500 28000
L59500 28000
" />
<path d="M48500 37500
L57000 37500
" />
<path d="M57000 37500
L57000 33500
" />
<path d="M57000 33500
L62000 33500
" />
<path d="M62000 34500
L59500 34500
" />
<path d="M62000 39500
L61000 39500
" />
<path d="M61000 39500
L61000 47000
" />
<path d="M61000 47000
L48500 47000
" />
<path d="M62000 38500
L59500 38500
" />
<path d="M59500 34500
L59500 32500
" />
<path d="M59500 32500
L59500 28000
" />
</g>
<g style="fill:#000000; fill-opacity:0.0; 
stroke:#000000; stroke-width:60; stroke-opacity:1; 
stroke-linecap:round; stroke-linejoin:round;">
<path d="M49400 46140
L49200 46140
" />
<path d="M49110 45970
L49170 45940
L49290 45940
L49340 45970
L49370 46000
L49400 46060
L49400 46230
L49370 46290
L49340 46310
L49290 46340
L49170 46340
L49110 46310
" />
<path d="M49650 45940
L49650 46340
" />
<path d="M49710 46110
L49880 46340
" />
<path d="M49880 45940
L49650 46170
" />
<path d="M50140 45940
L50140 46540
" />
<path d="M50140 45970
L50200 45940
L50310 45940
L50370 45970
L50400 46000
L50430 46060
L50430 46230
L50400 46290
L50370 46310
L50310 46340
L50200 46340
L50140 46310
" />
<path d="M50940 46340
L50940 46030
L50910 45970
L50850 45940
L50740 45940
L50680 45970
" />
<path d="M50940 46310
L50880 46340
L50740 46340
L50680 46310
L50650 46260
L50650 46200
L50680 46140
L50740 46110
L50880 46110
L50940 46090
" />
<path d="M51220 46140
L51480 46140
" />
<path d="M51220 45940
L51220 46340
" />
<path d="M51480 45940
L51480 46340
" />
<path d="M49430 41710
L49400 41740
L49340 41770
L49230 41770
L49170 41800
L49140 41830
L49110 41890
L49110 42230
L49140 42290
L49170 42310
L49230 42340
L49310 42340
L49370 42310
L49400 42290
L49430 42230
L49430 42060
L49400 42000
L49370 41970
L49310 41940
L49200 41940
L49140 41970
L49110 42000
" />
<path d="M49910 42310
L49850 42340
L49740 42340
L49680 42310
L49650 42260
L49650 42030
L49680 41970
L49740 41940
L49850 41940
L49910 41970
L49940 42030
L49940 42090
L49650 42140
" />
<path d="M50420 42340
L50420 41940
L50340 41940
L50280 41970
L50250 42030
L50220 42260
L50190 42310
L50140 42340
" />
<path d="M51100 41940
L51100 42340
" />
<path d="M50700 41940
L50700 42340
L50850 42340
L50900 42310
L50930 42260
L50930 42170
L50900 42110
L50850 42090
L50700 42090
" />
<path d="M51390 41940
L51390 42340
L51680 41940
L51680 42340
" />
<path d="M51420 41710
L51450 41770
L51510 41800
L51560 41800
L51620 41770
L51650 41710
" />
<path d="M49400 36810
L49340 36840
L49230 36840
L49170 36810
L49140 36790
L49110 36730
L49110 36560
L49140 36500
L49170 36470
L49230 36440
L49340 36440
L49400 36470
" />
<path d="M49650 36440
L49650 36840
L49940 36440
L49940 36840
" />
<path d="M50220 36640
L50480 36640
" />
<path d="M50220 36440
L50220 36840
" />
<path d="M50480 36440
L50480 36840
" />
<path d="M50760 36440
L50760 36840
L51050 36440
L51050 36840
" />
<path d="M51330 36440
L51330 36840
L51620 36440
L51620 36840
" />
<path d="M51360 36210
L51390 36270
L51450 36300
L51500 36300
L51560 36270
L51590 36210
" />
<path d="M49200 32640
L49260 32640
" />
<path d="M49090 32470
L49140 32440
L49260 32440
L49310 32470
L49340 32530
L49340 32560
L49310 32610
L49260 32640
L49310 32670
L49340 32730
L49340 32760
L49310 32810
L49260 32840
L49140 32840
L49090 32810
" />
<path d="M49830 32810
L49770 32840
L49660 32840
L49600 32810
L49570 32760
L49570 32530
L49600 32470
L49660 32440
L49770 32440
L49830 32470
L49860 32530
L49860 32590
L49570 32640
" />
<path d="M50340 32840
L50340 32440
L50260 32440
L50200 32470
L50170 32530
L50140 32760
L50110 32810
L50060 32840
" />
<path d="M50850 32810
L50790 32840
L50680 32840
L50620 32810
L50590 32760
L50590 32530
L50620 32470
L50680 32440
L50790 32440
L50850 32470
L50880 32530
L50880 32590
L50590 32640
" />
<path d="M50620 32240
L50650 32270
L50620 32300
L50590 32270
L50620 32240
L50620 32300
" />
<path d="M50850 32240
L50880 32270
L50850 32300
L50820 32270
L50850 32240
L50850 32300
" />
<path d="M51130 32640
L51390 32640
" />
<path d="M51130 32440
L51130 32840
" />
<path d="M51390 32440
L51390 32840
" />
<path d="M52070 32440
L52070 32840
" />
<path d="M51670 32440
L51670 32840
L51820 32840
L51870 32810
L51900 32760
L51900 32670
L51870 32610
L51820 32590
L51670 32590
" />
<path d="M52360 32440
L52360 32840
L52650 32440
L52650 32840
" />
<path d="M52390 32210
L52420 32270
L52480 32300
L52530 32300
L52590 32270
L52620 32210
" />
<path d="M49140 26940
L49140 27340
" />
<path d="M49200 27110
L49370 27340
" />
<path d="M49370 26940
L49140 27170
" />
<path d="M49630 26940
L49630 27540
" />
<path d="M49630 26970
L49690 26940
L49800 26940
L49860 26970
L49890 27000
L49920 27060
L49920 27230
L49890 27290
L49860 27310
L49800 27340
L49690 27340
L49630 27310
" />
<path d="M50430 27340
L50430 27030
L50400 26970
L50340 26940
L50230 26940
L50170 26970
" />
<path d="M50430 27310
L50370 27340
L50230 27340
L50170 27310
L50140 27260
L50140 27200
L50170 27140
L50230 27110
L50370 27110
L50430 27090
" />
<path d="M50970 27310
L50910 27340
L50800 27340
L50740 27310
L50710 27290
L50680 27230
L50680 27060
L50710 27000
L50740 26970
L50800 26940
L50910 26940
L50970 26970
" />
<path d="M51220 27140
L51480 27140
" />
<path d="M51220 26940
L51220 27340
" />
<path d="M51480 26940
L51480 27340
" />
<path d="M52160 26940
L52160 27340
" />
<path d="M51760 26940
L51760 27340
L51910 27340
L51960 27310
L51990 27260
L51990 27170
L51960 27110
L51910 27090
L51760 27090
" />
<path d="M52450 26940
L52450 27340
L52740 26940
L52740 27340
" />
<path d="M52480 26710
L52510 26770
L52570 26800
L52620 26800
L52680 26770
L52710 26710
" />
</g>
<g style="fill:#000000; fill-opacity:0.0; 
stroke:#000000; stroke-width:0; stroke-opacity:1; 
stroke-linecap:round; stroke-linejoin:round;">
</g>
<g style="fill:#000000; fill-opacity:0.0; 
stroke:#000000; stroke-width:60; stroke-opacity:1; 
stroke-linecap:round; stroke-linejoin:round;">
<path d="M40880 27510
L41340 27510
" />
<path d="M41110 27740
L41110 27290
" />
<path d="M41540 27140
L41740 27740
L41940 27140
" />
<path d="M42130 27430
L42330 27430
" />
<path d="M42420 27740
L42130 27740
L42130 27140
L42420 27140
" />
<path d="M43050 27340
L43280 27340
" />
<path d="M43130 27740
L43130 27230
L43160 27170
L43220 27140
L43280 27140
" />
<path d="M43560 27740
L43500 27710
L43470 27690
L43440 27630
L43440 27460
L43470 27400
L43500 27370
L43560 27340
L43640 27340
L43700 27370
L43730 27400
L43760 27460
L43760 27630
L43730 27690
L43700 27710
L43640 27740
L43560 27740
" />
<path d="M44010 27740
L44010 27340
" />
<path d="M44010 27460
L44040 27400
L44070 27370
L44130 27340
L44180 27340
" />
<path d="M44640 27710
L44580 27740
L44470 27740
L44410 27710
L44380 27690
L44350 27630
L44350 27460
L44380 27400
L44410 27370
L44470 27340
L44580 27340
L44640 27370
" />
<path d="M45120 27710
L45060 27740
L44950 27740
L44890 27710
L44860 27660
L44860 27430
L44890 27370
L44950 27340
L45060 27340
L45120 27370
L45150 27430
L45150 27490
L44860 27540
" />
<path d="M43160 33010
L43620 33010
" />
<path d="M43390 33240
L43390 32790
" />
<path d="M43820 32640
L44020 33240
L44220 32640
" />
<path d="M44410 32930
L44610 32930
" />
<path d="M44700 33240
L44410 33240
L44410 32640
L44700 32640
" />
<path d="M45380 33210
L45440 33240
L45560 33240
L45610 33210
L45640 33160
L45640 33130
L45610 33070
L45560 33040
L45470 33040
L45410 33010
L45380 32960
L45380 32930
L45410 32870
L45470 32840
L45560 32840
L45610 32870
" />
<path d="M45900 33240
L45900 32840
" />
<path d="M45900 32640
L45870 32670
L45900 32700
L45930 32670
L45900 32640
L45900 32700
" />
<path d="M46450 32840
L46450 33330
L46420 33390
L46390 33410
L46340 33440
L46250 33440
L46190 33410
" />
<path d="M46450 33210
L46390 33240
L46280 33240
L46220 33210
L46190 33190
L46160 33130
L46160 32960
L46190 32900
L46220 32870
L46280 32840
L46390 32840
L46450 32870
" />
<path d="M46730 32840
L46730 33240
" />
<path d="M46730 32900
L46760 32870
L46820 32840
L46900 32840
L46960 32870
L46990 32930
L46990 33240
" />
<path d="M47530 33240
L47530 32930
L47500 32870
L47440 32840
L47330 32840
L47270 32870
" />
<path d="M47530 33210
L47470 33240
L47330 33240
L47270 33210
L47240 33160
L47240 33100
L47270 33040
L47330 33010
L47470 33010
L47530 32990
" />
<path d="M47900 33240
L47840 33210
L47810 33160
L47810 32640
" />
<path d="M40880 42510
L41340 42510
" />
<path d="M41540 42140
L41740 42740
L41940 42140
" />
<path d="M42130 42430
L42330 42430
" />
<path d="M42420 42740
L42130 42740
L42130 42140
L42420 42140
" />
<path d="M43050 42340
L43280 42340
" />
<path d="M43130 42740
L43130 42230
L43160 42170
L43220 42140
L43280 42140
" />
<path d="M43560 42740
L43500 42710
L43470 42690
L43440 42630
L43440 42460
L43470 42400
L43500 42370
L43560 42340
L43640 42340
L43700 42370
L43730 42400
L43760 42460
L43760 42630
L43730 42690
L43700 42710
L43640 42740
L43560 42740
" />
<path d="M44010 42740
L44010 42340
" />
<path d="M44010 42460
L44040 42400
L44070 42370
L44130 42340
L44180 42340
" />
<path d="M44640 42710
L44580 42740
L44470 42740
L44410 42710
L44380 42690
L44350 42630
L44350 42460
L44380 42400
L44410 42370
L44470 42340
L44580 42340
L44640 42370
" />
<path d="M45120 42710
L45060 42740
L44950 42740
L44890 42710
L44860 42660
L44860 42430
L44890 42370
L44950 42340
L45060 42340
L45120 42370
L45150 42430
L45150 42490
L44860 42540
" />
<path d="M43160 38010
L43620 38010
" />
<path d="M43820 37640
L44020 38240
L44220 37640
" />
<path d="M44410 37930
L44610 37930
" />
<path d="M44700 38240
L44410 38240
L44410 37640
L44700 37640
" />
<path d="M45380 38210
L45440 38240
L45560 38240
L45610 38210
L45640 38160
L45640 38130
L45610 38070
L45560 38040
L45470 38040
L45410 38010
L45380 37960
L45380 37930
L45410 37870
L45470 37840
L45560 37840
L45610 37870
" />
<path d="M45900 38240
L45900 37840
" />
<path d="M45900 37640
L45870 37670
L45900 37700
L45930 37670
L45900 37640
L45900 37700
" />
<path d="M46450 37840
L46450 38330
L46420 38390
L46390 38410
L46340 38440
L46250 38440
L46190 38410
" />
<path d="M46450 38210
L46390 38240
L46280 38240
L46220 38210
L46190 38190
L46160 38130
L46160 37960
L46190 37900
L46220 37870
L46280 37840
L46390 37840
L46450 37870
" />
<path d="M46730 37840
L46730 38240
" />
<path d="M46730 37900
L46760 37870
L46820 37840
L46900 37840
L46960 37870
L46990 37930
L46990 38240
" />
<path d="M47530 38240
L47530 37930
L47500 37870
L47440 37840
L47330 37840
L47270 37870
" />
<path d="M47530 38210
L47470 38240
L47330 38240
L47270 38210
L47240 38160
L47240 38100
L47270 38040
L47330 38010
L47470 38010
L47530 37990
" />
<path d="M47900 38240
L47840 38210
L47810 38160
L47810 37640
" />
</g>
<g style="fill:#000000; fill-opacity:1.0; 
stroke:#000000; stroke-width:60; stroke-opacity:1; 
stroke-linecap:round; stroke-linejoin:round;">
<circle cx="31500" cy="35500" r="250" /> 
<circle cx="37500" cy="40750" r="250" /> 
<circle cx="37500" cy="30250" r="250" /> 
<circle cx="43500" cy="35500" r="250" /> 
</g>
<g style="fill:#000000; fill-opacity:0.0; 
stroke:#000000; stroke-width:60; stroke-opacity:1; 
stroke-linecap:round; stroke-linejoin:round;">
<polyline fill="none;"
points="43500,35500
45500,37500
" /> 
<polyline fill="none;"
points="43500,33500
47500,33500
" /> 
<polyline fill="none;"
points="45500,37500
47500,37500
" /> 
<polyline fill="none;"
points="36000,39500
37500,40750
39000,39500
" /> 
<polyline fill="none;"
points="37500,42500
37500,43000
46500,43000
" /> 
<polyline fill="none;"
points="37500,42500
37500,41000
37500,41000
" /> 
</g>
<g style="fill:#000000; fill-opacity:1.0; 
stroke:#000000; stroke-width:60; stroke-opacity:1; 
stroke-linecap:round; stroke-linejoin:round;">
<polyline style="fill-rule:evenodd;"
points="37500,30000
37500,29500
37500,29500
" /> 
</g>
<g style="fill:#000000; fill-opacity:0.0; 
stroke:#000000; stroke-width:60; stroke-opacity:1; 
stroke-linecap:round; stroke-linejoin:round;">
<polyline fill="none;"
points="31500,35500
41500,35500
43500,33500
43500,33500
" /> 
<polyline fill="none;"
points="33000,37000
31500,35500
33000,34000
33000,34000
" /> 
<polyline fill="none;"
points="36000,31500
37500,30250
39000,31500
39000,31500
" /> 
<polyline fill="none;"
points="37500,30000
37500,28000
46500,28000
46500,28000
" /> 
<polyline fill="none;"
points="42000,34000
43500,35500
42000,37000
42000,37000
" /> 
<polyline fill="none;"
points="32500,37500
35500,40000
36500,39000
33500,36500
32500,37500
32500,37500
" /> 
<polyline fill="none;"
points="32500,37500
35500,40000
36500,39000
33500,36500
32500,37500
32500,37500
" /> 
<polyline fill="none;"
points="35500,31000
36500,32000
33500,34500
32500,33500
35500,31000
35500,31000
" /> 
<polyline fill="none;"
points="38500,32000
41500,34500
42500,33500
39500,31000
38500,32000
38500,32000
" /> 
<polyline fill="none;"
points="38500,32000
41500,34500
42500,33500
39500,31000
38500,32000
38500,32000
" /> 
<polyline fill="none;"
points="41500,36500
42500,37500
39500,40000
38500,39000
41500,36500
41500,36500
" /> 
<path d="M46500 28000
L48500 28000
" />
<path d="M46500 43000
L48500 43000
" />
<path d="M46500 33500
L48500 33500
" />
<path d="M46500 37500
L48500 37500
" />
<path d="M35950 34710
L35660 34710
L35660 34110
" />
<path d="M36150 34710
L36150 34110
L36380 34110
L36440 34140
L36470 34170
L36500 34230
L36500 34310
L36470 34370
L36440 34400
L36380 34430
L36150 34430
" />
<path d="M37100 34660
L37070 34680
L36980 34710
L36920 34710
L36840 34680
L36780 34630
L36750 34570
L36720 34460
L36720 34370
L36750 34260
L36780 34200
L36840 34140
L36920 34110
L36980 34110
L37070 34140
L37100 34170
" />
<path d="M37320 34170
L37350 34140
L37410 34110
L37550 34110
L37610 34140
L37640 34170
L37670 34230
L37670 34280
L37640 34370
L37300 34710
L37670 34710
" />
<path d="M38210 34110
L37920 34110
L37890 34400
L37920 34370
L37980 34340
L38120 34340
L38180 34370
L38210 34400
L38240 34460
L38240 34600
L38210 34660
L38180 34680
L38120 34710
L37980 34710
L37920 34680
L37890 34660
" />
<path d="M38610 34110
L38660 34110
L38720 34140
L38750 34170
L38780 34230
L38810 34340
L38810 34480
L38780 34600
L38750 34660
L38720 34680
L38660 34710
L38610 34710
L38550 34680
L38520 34660
L38490 34600
L38460 34480
L38460 34340
L38490 34230
L38520 34170
L38550 34140
L38610 34110
" />
<path d="M39180 34110
L39230 34110
L39290 34140
L39320 34170
L39350 34230
L39380 34340
L39380 34480
L39350 34600
L39320 34660
L39290 34680
L39230 34710
L39180 34710
L39120 34680
L39090 34660
L39060 34600
L39030 34480
L39030 34340
L39060 34230
L39090 34170
L39120 34140
L39180 34110
" />
<path d="M33810 59210
L33760 59260
L33620 59300
L33520 59300
L33380 59260
L33290 59160
L33240 59070
L33190 58880
L33190 58730
L33240 58540
L33290 58450
L33380 58350
L33520 58300
L33620 58300
L33760 58350
L33810 58400
" />
<path d="M34140 59300
L34670 58640
" />
<path d="M34140 58640
L34670 59300
" />
<path d="M35430 59260
L35330 59300
L35140 59300
L35050 59260
L35000 59160
L35000 58780
L35050 58690
L35140 58640
L35330 58640
L35430 58690
L35480 58780
L35480 58880
L35000 58970
" />
<path d="M35910 59300
L35910 58640
L36190 59160
L36480 58640
L36480 59300
" />
<path d="M37390 59300
L37390 58780
L37340 58690
L37240 58640
L37050 58640
L36960 58690
" />
<path d="M37390 59260
L37290 59300
L37050 59300
L36960 59260
L36910 59160
L36910 59070
L36960 58970
L37050 58920
L37290 58920
L37390 58880
" />
<path d="M39050 58970
L38710 58970
" />
<path d="M38570 58690
L38670 58640
L38860 58640
L38950 58690
L39000 58730
L39050 58830
L39050 59110
L39000 59210
L38950 59260
L38860 59300
L38670 59300
L38570 59260
" />
<path d="M39860 59300
L39860 58640
L39720 58640
L39620 58690
L39570 58780
L39530 59160
L39480 59260
L39380 59300
" />
<path d="M40720 59260
L40620 59300
L40430 59300
L40340 59260
L40290 59160
L40290 58780
L40340 58690
L40430 58640
L40620 58640
L40720 58690
L40770 58780
L40770 58880
L40290 58970
" />
<path d="M41200 58640
L41200 59300
" />
<path d="M41290 58920
L41580 59300
" />
<path d="M41580 58640
L41200 59020
" />
<path d="M41870 58640
L42340 58640
" />
<path d="M42100 58640
L42100 59300
" />
<path d="M42680 58640
L42680 59640
" />
<path d="M42680 58690
L42770 58640
L42960 58640
L43060 58690
L43110 58730
L43150 58830
L43150 59110
L43110 59210
L43060 59260
L42960 59300
L42770 59300
L42680 59260
" />
<path d="M43580 58640
L43580 59300
L44050 58640
L44050 59300
" />
<path d="M44860 58640
L44860 59300
" />
<path d="M44480 58640
L44480 58880
L44530 58970
L44620 59020
L44860 59020
" />
<path d="M45770 59260
L45670 59300
L45480 59300
L45390 59260
L45340 59160
L45340 58780
L45390 58690
L45480 58640
L45670 58640
L45770 58690
L45820 58780
L45820 58880
L45340 58970
" />
<path d="M46680 59260
L46580 59300
L46390 59300
L46300 59260
L46250 59210
L46200 59110
L46200 58830
L46250 58730
L46300 58690
L46390 58640
L46580 58640
L46680 58690
" />
<path d="M47110 58640
L47110 59300
" />
<path d="M47200 58920
L47490 59300
" />
<path d="M47490 58640
L47110 59020
" />
<path d="M48350 59300
L48350 58780
L48300 58690
L48200 58640
L48010 58640
L47920 58690
" />
<path d="M48350 59260
L48250 59300
L48010 59300
L47920 59260
L47870 59160
L47870 59070
L47920 58970
L48010 58920
L48250 58920
L48350 58880
" />
<path d="M49010 59020
L48770 59300
" />
<path d="M49200 59300
L49200 58640
L48910 58640
L48820 58690
L48770 58780
L48770 58880
L48820 58970
L48910 59020
L49200 59020
" />
<path d="M50440 59300
L50440 58640
L50870 58640
L50870 59300
" />
<path d="M51340 58640
L51340 59640
" />
<path d="M51340 58690
L51430 58640
L51620 58640
L51720 58690
L51770 58730
L51810 58830
L51810 59110
L51770 59210
L51720 59260
L51620 59300
L51430 59300
L51340 59260
" />
<path d="M52240 58640
L52240 59300
L52710 58640
L52710 59300
" />
<path d="M53190 58970
L53620 58970
" />
<path d="M53190 58640
L53190 59300
" />
<path d="M53620 58640
L53620 59300
" />
<path d="M54520 58640
L54520 59300
" />
<path d="M54090 58640
L54090 59300
L54610 59300
L54610 59540
" />
<path d="M54990 58640
L54990 59300
L55460 58640
L55460 59300
" />
<path d="M55940 59300
L55940 58640
L56370 58640
L56370 59300
" />
<path d="M56840 58640
L56840 59300
L57310 58640
L57310 59300
" />
<path d="M58220 59300
L58220 58780
L58170 58690
L58070 58640
L57880 58640
L57790 58690
" />
<path d="M58220 59260
L58120 59300
L57880 59300
L57790 59260
L57740 59160
L57740 59070
L57790 58970
L57880 58920
L58120 58920
L58220 58880
" />
<path d="M59070 59300
L59070 58640
L58930 58640
L58830 58690
L58780 58780
L58740 59160
L58690 59260
L58590 59300
" />
<path d="M59550 58640
L59550 59300
L59790 59300
L59880 59260
L59930 59160
L59930 59020
L59880 58920
L59790 58880
L59550 58880
" />
<path d="M60360 58970
L60790 58970
" />
<path d="M60360 58640
L60360 59300
" />
<path d="M60790 58640
L60790 59300
" />
<path d="M61690 59300
L61690 58780
L61640 58690
L61540 58640
L61350 58640
L61260 58690
" />
<path d="M61690 59260
L61590 59300
L61350 59300
L61260 59260
L61210 59160
L61210 59070
L61260 58970
L61350 58920
L61590 58920
L61690 58880
" />
<path d="M62350 59020
L62110 59300
" />
<path d="M62540 59300
L62540 58640
L62250 58640
L62160 58690
L62110 58780
L62110 58880
L62160 58970
L62250 59020
L62540 59020
" />
<path d="M33290 55490
L33290 56290
L33860 55490
L33860 56290
" />
<path d="M35340 56290
L35340 55490
L35850 55490
L35850 56290
" />
<path d="M36430 55490
L36430 56690
" />
<path d="M36430 55540
L36540 55490
L36770 55490
L36880 55540
L36940 55600
L37000 55710
L37000 56060
L36940 56170
L36880 56230
L36770 56290
L36540 56290
L36430 56230
" />
<path d="M37520 55490
L37520 56290
L38090 55490
L38090 56290
" />
<path d="M39170 56230
L39060 56290
L38830 56290
L38710 56230
L38660 56170
L38600 56060
L38600 55710
L38660 55600
L38710 55540
L38830 55490
L39060 55490
L39170 55540
" />
<path d="M39860 56290
L39740 56230
L39690 56170
L39630 56060
L39630 55710
L39690 55600
L39740 55540
L39860 55490
L40030 55490
L40140 55540
L40200 55600
L40260 55710
L40260 56060
L40200 56170
L40140 56230
L40030 56290
L39860 56290
" />
<path d="M41230 56230
L41120 56290
L40890 56290
L40780 56230
L40720 56110
L40720 55660
L40780 55540
L40890 55490
L41120 55490
L41230 55540
L41290 55660
L41290 55770
L40720 55890
" />
<path d="M42380 55600
L42320 55540
L42210 55490
L41980 55490
L41860 55540
L41810 55600
L41750 55710
L41750 56060
L41810 56170
L41860 56230
L41980 56290
L42150 56290
L42260 56230
L42320 56170
L42380 56060
L42380 55310
L42320 55200
L42260 55140
L42150 55090
L41920 55090
L41810 55140
" />
<path d="M42900 55490
L42900 56290
L43470 55490
L43470 56290
" />
<path d="M44040 55890
L44550 55890
" />
<path d="M44040 55490
L44040 56290
" />
<path d="M44550 55490
L44550 56290
" />
<path d="M45130 55490
L45130 56290
L45700 55490
L45700 56290
" />
<path d="M46090 55490
L46670 55490
" />
<path d="M46380 55490
L46380 56290
" />
<path d="M47520 56230
L47410 56290
L47180 56290
L47070 56230
L47010 56110
L47010 55660
L47070 55540
L47180 55490
L47410 55490
L47520 55540
L47580 55660
L47580 55770
L47010 55890
" />
<path d="M48550 56290
L48550 55490
L48380 55490
L48270 55540
L48210 55660
L48150 56110
L48100 56230
L47980 56290
" />
<path d="M49130 55490
L49130 56290
L49410 56290
L49530 56230
L49580 56110
L49580 55940
L49530 55830
L49410 55770
L49130 55770
" />
<path d="M50100 55890
L50610 55890
" />
<path d="M50100 55490
L50100 56290
" />
<path d="M50610 55490
L50610 56290
" />
<path d="M51990 55490
L51990 56290
" />
<path d="M51190 55490
L51190 56290
L51470 56290
L51590 56230
L51640 56110
L51640 55940
L51590 55830
L51470 55770
L51190 55770
" />
<path d="M52560 56290
L52560 55490
L52900 56110
L53240 55490
L53240 56290
" />
<path d="M54730 55490
L54730 56690
" />
<path d="M54730 55540
L54840 55490
L55070 55490
L55180 55540
L55240 55600
L55300 55710
L55300 56060
L55240 56170
L55180 56230
L55070 56290
L54840 56290
L54730 56230
" />
<path d="M56330 56290
L56330 55660
L56270 55540
L56160 55490
L55930 55490
L55820 55540
" />
<path d="M56330 56230
L56220 56290
L55930 56290
L55820 56230
L55760 56110
L55760 56000
L55820 55890
L55930 55830
L56220 55830
L56330 55770
" />
<path d="M57020 55890
L57130 55890
" />
<path d="M56790 55540
L56910 55490
L57130 55490
L57250 55540
L57310 55660
L57310 55710
L57250 55830
L57130 55890
L57250 55940
L57310 56060
L57310 56110
L57250 56230
L57130 56290
L56910 56290
L56790 56230
" />
<path d="M57640 55490
L57870 55490
L57870 56290
L58160 56290
L58270 56230
L58330 56110
L58330 55940
L58270 55830
L58160 55770
L57870 55770
" />
<path d="M59300 56230
L59190 56290
L58960 56290
L58850 56230
L58790 56110
L58790 55660
L58850 55540
L58960 55490
L59190 55490
L59300 55540
L59360 55660
L59360 55770
L58790 55890
" />
<path d="M59880 56290
L59880 55490
L60220 56110
L60560 55490
L60560 56290
" />
<path d="M61310 56290
L61190 56230
L61140 56170
L61080 56060
L61080 55710
L61140 55600
L61190 55540
L61310 55490
L61480 55490
L61590 55540
L61650 55600
L61710 55710
L61710 56060
L61650 56170
L61590 56230
L61480 56290
L61310 56290
" />
<path d="M62230 56290
L62230 55490
L62570 56110
L62910 55490
L62910 56290
" />
<path d="M30700 54070
L30700 53790
L29670 53790
L29670 54070
" />
<path d="M30470 53790
L30470 52590
L30190 52590
L30070 52640
L30010 52700
L29960 52810
L29840 53790
" />
<path d="M31670 53790
L31670 53160
L31610 53040
L31500 52990
L31270 52990
L31160 53040
" />
<path d="M31670 53730
L31560 53790
L31270 53790
L31160 53730
L31100 53610
L31100 53500
L31160 53390
L31270 53330
L31560 53330
L31670 53270
" />
<path d="M32070 52990
L32650 52990
" />
<path d="M32360 52990
L32360 53790
" />
<path d="M33450 52990
L33450 53790
" />
<path d="M32990 52990
L32990 53270
L33050 53390
L33160 53440
L33450 53440
" />
<path d="M34080 52990
L34080 53790
L34650 52990
L34650 53790
" />
<path d="M35220 52990
L35220 53790
" />
<path d="M35330 53330
L35670 53790
" />
<path d="M35670 52990
L35220 53440
" />
<path d="M37610 53730
L37500 53790
L37270 53790
L37150 53730
L37100 53670
L37040 53560
L37040 53210
L37100 53100
L37150 53040
L37270 52990
L37500 52990
L37610 53040
" />
<path d="M38130 52990
L38130 53790
L38700 52990
L38700 53790
" />
<path d="M39720 53790
L39720 52990
L39550 52990
L39440 53040
L39380 53160
L39320 53610
L39270 53730
L39150 53790
" />
<path d="M41100 52990
L41100 53790
" />
<path d="M40300 52990
L40300 53790
L40580 53790
L40700 53730
L40750 53610
L40750 53440
L40700 53330
L40580 53270
L40300 53270
" />
<path d="M43150 53790
L42580 53790
L42580 52590
" />
<path d="M43550 53790
L43550 52590
L44000 52590
L44120 52640
L44170 52700
L44230 52810
L44230 52990
L44170 53100
L44120 53160
L44000 53210
L43550 53210
" />
<path d="M45430 53670
L45370 53730
L45200 53790
L45090 53790
L44920 53730
L44800 53610
L44750 53500
L44690 53270
L44690 53100
L44750 52870
L44800 52760
L44920 52640
L45090 52590
L45200 52590
L45370 52640
L45430 52700
" />
<path d="M45890 52700
L45950 52640
L46060 52590
L46350 52590
L46460 52640
L46520 52700
L46570 52810
L46570 52930
L46520 53100
L45830 53790
L46570 53790
" />
<path d="M47660 52590
L47090 52590
L47030 53160
L47090 53100
L47200 53040
L47490 53040
L47600 53100
L47660 53160
L47710 53270
L47710 53560
L47660 53670
L47600 53730
L47490 53790
L47200 53790
L47090 53730
L47030 53670
" />
<path d="M48450 52590
L48570 52590
L48680 52640
L48740 52700
L48800 52810
L48850 53040
L48850 53330
L48800 53560
L48740 53670
L48680 53730
L48570 53790
L48450 53790
L48340 53730
L48280 53670
L48230 53560
L48170 53330
L48170 53040
L48230 52810
L48280 52700
L48340 52640
L48450 52590
" />
<path d="M49590 52590
L49710 52590
L49820 52640
L49880 52700
L49940 52810
L49990 53040
L49990 53330
L49940 53560
L49880 53670
L49820 53730
L49710 53790
L49590 53790
L49480 53730
L49420 53670
L49370 53560
L49310 53330
L49310 53040
L49370 52810
L49420 52700
L49480 52640
L49590 52590
" />
<path d="M51360 52530
L50330 54070
" />
<path d="M52340 53790
L51770 53790
L51770 52590
" />
<path d="M52740 53790
L52740 52590
L53190 52590
L53310 52640
L53360 52700
L53420 52810
L53420 52990
L53360 53100
L53310 53160
L53190 53210
L52740 53210
" />
<path d="M54620 53670
L54560 53730
L54390 53790
L54280 53790
L54110 53730
L53990 53610
L53940 53500
L53880 53270
L53880 53100
L53940 52870
L53990 52760
L54110 52640
L54280 52590
L54390 52590
L54560 52640
L54620 52700
" />
<path d="M55020 52590
L55760 52590
L55360 53040
L55540 53040
L55650 53100
L55710 53160
L55760 53270
L55760 53560
L55710 53670
L55650 53730
L55540 53790
L55190 53790
L55080 53730
L55020 53670
" />
<path d="M56220 53440
L56790 53440
" />
<path d="M56100 53790
L56500 52590
L56900 53790
" />
<path d="M58730 53730
L58620 53790
L58390 53790
L58270 53730
L58220 53670
L58160 53560
L58160 53210
L58220 53100
L58270 53040
L58390 52990
L58620 52990
L58730 53040
" />
<path d="M60160 52990
L60160 53790
" />
<path d="M60270 53330
L60610 53790
" />
<path d="M60610 52990
L60160 53440
" />
<path d="M61640 53790
L61640 53160
L61580 53040
L61470 52990
L61240 52990
L61130 53040
" />
<path d="M61640 53730
L61530 53790
L61240 53790
L61130 53730
L61070 53610
L61070 53500
L61130 53390
L61240 53330
L61530 53330
L61640 53270
" />
<path d="M62790 52530
L62730 52590
L62620 52640
L62390 52640
L62270 52700
L62220 52760
L62160 52870
L62160 53560
L62220 53670
L62270 53730
L62390 53790
L62560 53790
L62670 53730
L62730 53670
L62790 53560
L62790 53210
L62730 53100
L62670 53040
L62560 52990
L62330 52990
L62220 53040
L62160 53100
" />
<path d="M63760 53730
L63650 53790
L63420 53790
L63310 53730
L63250 53610
L63250 53160
L63310 53040
L63420 52990
L63650 52990
L63760 53040
L63820 53160
L63820 53270
L63250 53390
" />
<path d="M64790 53790
L64790 52990
L64620 52990
L64510 53040
L64450 53160
L64390 53610
L64340 53730
L64220 53790
" />
<path d="M65820 53730
L65710 53790
L65480 53790
L65370 53730
L65310 53610
L65310 53160
L65370 53040
L65480 52990
L65710 52990
L65820 53040
L65880 53160
L65880 53270
L65310 53390
" />
<path d="M66400 53790
L66400 52990
L66740 53610
L67080 52990
L67080 53790
" />
</g>
<g style="fill:#000000; fill-opacity:0.0; 
stroke:#000000; stroke-width:0; stroke-opacity:1; 
stroke-linecap:round; stroke-linejoin:round;">
</g>
<g style="fill:#000000; fill-opacity:0.0; 
stroke:#000000; stroke-width:60; stroke-opacity:1; 
stroke-linecap:round; stroke-linejoin:round;">
<circle cx="65800" cy="32500" r="300" /> 
<circle cx="65800" cy="34500" r="300" /> 
<circle cx="65800" cy="36500" r="300" /> 
<circle cx="65800" cy="38500" r="300" /> 
<circle cx="65800" cy="40500" r="300" /> 
<circle cx="67000" cy="33500" r="300" /> 
<circle cx="67000" cy="35500" r="300" /> 
<circle cx="67000" cy="37500" r="300" /> 
<circle cx="67000" cy="39500" r="300" /> 
</g>
<g style="fill:#000000; fill-opacity:0.0; 
stroke:#000000; stroke-width:80; stroke-opacity:1; 
stroke-linecap:round; stroke-linejoin:round;">
<polyline fill="none;"
points="65000,31900
65000,41100
" /> 
<polyline fill="none;"
points="65000,31910
65100,31800
" /> 
</g>
<g style="fill:#000000; fill-opacity:0.0; 
stroke:#000000; stroke-width:60; stroke-opacity:1; 
stroke-linecap:round; stroke-linejoin:round;">
<polyline fill="none;"
points="65000,32500
65500,32500
" /> 
<polyline fill="none;"
points="65000,33500
66700,33500
" /> 
<polyline fill="none;"
points="65000,34500
65500,34500
" /> 
<polyline fill="none;"
points="65000,35500
66700,35500
" /> 
<polyline fill="none;"
points="65000,36500
65500,36500
" /> 
<polyline fill="none;"
points="65000,37500
66700,37500
" /> 
<polyline fill="none;"
points="65000,38500
65500,38500
" /> 
<polyline fill="none;"
points="65000,39500
66700,39500
" /> 
<polyline fill="none;"
points="65000,40500
65500,40500
" /> 
</g>
<g style="fill:#000000; fill-opacity:0.0; 
stroke:#000000; stroke-width:80; stroke-opacity:1; 
stroke-linecap:round; stroke-linejoin:round;">
<polyline fill="none;"
points="65100,31800
65400,31600
" /> 
<polyline fill="none;"
points="65100,41200
65000,41100
" /> 
<polyline fill="none;"
points="65100,41200
65500,41400
" /> 
<polyline fill="none;"
points="65400,31600
66000,31600
" /> 
<polyline fill="none;"
points="65500,41400
65800,41400
" /> 
<polyline fill="none;"
points="67790,40400
65800,41400
" /> 
<polyline fill="none;"
points="67790,40400
68000,40200
" /> 
<polyline fill="none;"
points="67900,32410
66000,31600
" /> 
<polyline fill="none;"
points="68000,32600
67900,32410
" /> 
<polyline fill="none;"
points="68000,40200
68000,32600
" /> 
</g>
<g style="fill:#000000; fill-opacity:0.0; 
stroke:#000000; stroke-width:60; stroke-opacity:1; 
stroke-linecap:round; stroke-linejoin:round;">
<path d="M65000 32500
L62000 32500
" />
<path d="M63680 32340
L63330 32340
" />
<path d="M63510 32340
L63510 31740
L63450 31830
L63390 31890
L63330 31910
" />
<path d="M65000 34500
L62000 34500
" />
<path d="M63330 33800
L63360 33770
L63420 33740
L63560 33740
L63620 33770
L63650 33800
L63680 33860
L63680 33910
L63650 34000
L63310 34340
L63680 34340
" />
<path d="M65000 36500
L62000 36500
" />
<path d="M63310 35740
L63680 35740
L63480 35970
L63560 35970
L63620 36000
L63650 36030
L63680 36090
L63680 36230
L63650 36290
L63620 36310
L63560 36340
L63390 36340
L63330 36310
L63310 36290
" />
<path d="M65000 38500
L62000 38500
" />
<path d="M63620 37940
L63620 38340
" />
<path d="M63480 37710
L63330 38140
L63710 38140
" />
<path d="M65000 40500
L62000 40500
" />
<path d="M63650 39740
L63360 39740
L63330 40030
L63360 40000
L63420 39970
L63560 39970
L63620 40000
L63650 40030
L63680 40090
L63680 40230
L63650 40290
L63620 40310
L63560 40340
L63420 40340
L63360 40310
L63330 40290
" />
<path d="M65000 33500
L62000 33500
" />
<path d="M63620 32740
L63510 32740
L63450 32770
L63420 32800
L63360 32890
L63330 33000
L63330 33230
L63360 33290
L63390 33310
L63450 33340
L63560 33340
L63620 33310
L63650 33290
L63680 33230
L63680 33090
L63650 33030
L63620 33000
L63560 32970
L63450 32970
L63390 33000
L63360 33030
L63330 33090
" />
<path d="M65000 35500
L62000 35500
" />
<path d="M63310 34740
L63710 34740
L63450 35340
" />
<path d="M65000 37500
L62000 37500
" />
<path d="M63450 37000
L63390 36970
L63360 36940
L63330 36890
L63330 36860
L63360 36800
L63390 36770
L63450 36740
L63560 36740
L63620 36770
L63650 36800
L63680 36860
L63680 36890
L63650 36940
L63620 36970
L63560 37000
L63450 37000
L63390 37030
L63360 37060
L63330 37110
L63330 37230
L63360 37290
L63390 37310
L63450 37340
L63560 37340
L63620 37310
L63650 37290
L63680 37230
L63680 37110
L63650 37060
L63620 37030
L63560 37000
" />
<path d="M65000 39500
L62000 39500
" />
<path d="M63390 39340
L63510 39340
L63560 39310
L63590 39290
L63650 39200
L63680 39090
L63680 38860
L63650 38800
L63620 38770
L63560 38740
L63450 38740
L63390 38770
L63360 38800
L63330 38860
L63330 39000
L63360 39060
L63390 39090
L63450 39110
L63560 39110
L63620 39090
L63650 39060
L63680 39000
" />
<path d="M64580 29110
L65050 29810
" />
<path d="M65050 29110
L64580 29810
" />
<path d="M65320 29810
L65320 29110
L65580 29110
L65650 29150
L65680 29180
L65720 29250
L65720 29350
L65680 29410
L65650 29450
L65580 29480
L65320 29480
" />
<path d="M66380 29810
L65980 29810
" />
<path d="M66180 29810
L66180 29110
L66120 29210
L66050 29280
L65980 29310
" />
<path d="M64240 30810
L64240 30110
L64400 30110
L64500 30150
L64570 30210
L64600 30280
L64640 30410
L64640 30510
L64600 30650
L64570 30710
L64500 30780
L64400 30810
L64240 30810
" />
<path d="M65170 30450
L65270 30480
L65300 30510
L65340 30580
L65340 30680
L65300 30750
L65270 30780
L65200 30810
L64940 30810
L64940 30110
L65170 30110
L65240 30150
L65270 30180
L65300 30250
L65300 30310
L65270 30380
L65240 30410
L65170 30450
L64940 30450
" />
<path d="M65670 30810
L65800 30810
L65870 30780
L65900 30750
L65970 30650
L66000 30510
L66000 30250
L65970 30180
L65940 30150
L65870 30110
L65740 30110
L65670 30150
L65640 30180
L65600 30250
L65600 30410
L65640 30480
L65670 30510
L65740 30550
L65870 30550
L65940 30510
L65970 30480
L66000 30410
" />
<path d="M66310 30810
L66310 30110
L66540 30610
L66770 30110
L66770 30810
" />
</g> 
</svg>
